<?xml version="1.0" encoding="UTF-8"?>
<svg width="400px" height="400px" viewBox="0 0 400 400" version="1.1" xmlns="http://www.w3.org/2000/svg" xmlns:xlink="http://www.w3.org/1999/xlink">
    <!-- Generator: Sketch 58 (84663) - https://sketch.com -->
    <title>Teams / Primary Logo / DAL - Empire</title>
    <desc>Created with Sketch.</desc>
    <g id="Teams-/-Primary-Logo-/-DAL---Empire" stroke="none" stroke-width="1" fill="none" fill-rule="evenodd">
        <path d="M80.01535,103.63505 L83.43585,114.58305 C83.49885,114.78605 83.58685,114.83305 83.77785,114.83255 L89.2015375,114.82805 L94.84335,114.82805 C94.84785,114.84105 94.85235,114.85405 94.85635,114.86705 C94.81135,114.90455 94.76685,114.94455 94.71985,114.98055 C91.77085,117.20805 88.82185,119.43655 85.86885,121.65955 C85.73285,121.76205 85.70835,121.84555 85.75985,122.01055 C86.89085,125.61155 88.01585,129.21505 89.14185,132.81805 C89.16035,132.87805 89.17485,132.93905 89.20535,133.05255 C88.96935,132.87505 88.77385,132.72855 88.57835,132.58105 C85.77585,130.46455 82.97235,128.34955 80.17285,126.22905 C80.03785,126.12655 79.95285,126.12705 79.81785,126.22905 C76.87585,128.45705 73.93085,130.67905 70.98585,132.90205 C70.93235,132.94255 70.87635,132.98005 70.77735,133.04955 C70.92385,132.57805 71.05285,132.15905 71.18385,131.74055 C72.20235,128.48405 73.21935,125.22805 74.24335,121.97405 C74.29535,121.80805 74.22985,121.74405 74.12035,121.66155 C71.16935,119.43605 68.22035,117.20805 65.27085,114.98055 C65.2411833,114.957883 65.2121833,114.934106 65.1842944,114.896476 L65.14335,114.82805 L70.7802875,114.82805 L76.21285,114.83255 C76.3774214,114.832979 76.46485,114.797407 76.5261445,114.660028 L76.55485,114.58255 L80.01535,103.63505 Z M76.9815,26 L74.874,57.7215 L59.553,107.8145 L33.707,82.9145 L42.3305,106.4705 L46.504,105.2185 L40.331,126.678 L15,53.908 L55.8595,92.767 L76.9815,26 Z M134.7301,83.4105 L119.6691,126.678 L113.4961,105.2185 L117.6696,106.4705 L121.5421,95.8925 L134.7301,83.4105 Z M83.0186,26 L104.1406,92.767 L145.0001,53.908 L138.9056,71.4165 L100.4471,107.8145 L85.1256,57.7215 L83.0186,26 Z M44.3601,46.377 L58.7406,63.558 L56.3211,70.0685 L47.5946,59.342 L44.7481,73.646 L39.4786,68.432 L44.3601,46.377 Z M115.63975,46.37685 L120.52175,68.43185 L115.25175,73.64585 L112.40575,59.34235 L103.67875,70.06835 L101.25925,63.55785 L115.63975,46.37685 Z" id="DAL-EMP_Primary-Logo" fill="#B4A269"></path>
    </g>
</svg>